<?xml version="1.0" encoding="utf-8"?>
<!-- Generator: Adobe Illustrator 17.1.0, SVG Export Plug-In . SVG Version: 6.00 Build 0)  -->
<!DOCTYPE svg PUBLIC "-//W3C//DTD SVG 1.1//EN" "http://www.w3.org/Graphics/SVG/1.1/DTD/svg11.dtd">
<svg version="1.1" id="Слой_1" xmlns="http://www.w3.org/2000/svg" xmlns:xlink="http://www.w3.org/1999/xlink" x="0px" y="0px"
	 viewBox="0 0 80 80" enable-background="new 0 0 80 80" xml:space="preserve">
<circle fill="#FFFFFF" stroke="#000000" stroke-width="5" stroke-miterlimit="10" cx="40" cy="40" r="37.5"/>
<g>
	<g>
		<path fill="#681D5C" d="M48.7,18v6H31.8v36.3h-5.6V16.7h16.9C45.1,16.7,46.9,17.2,48.7,18z"/>
		<path fill="#681D5C" d="M43.1,60.3h-5.6v-1.2C39.2,59.9,41.1,60.3,43.1,60.3z"/>
		<path fill="#681D5C" d="M37.4,59.1v1.2h-5.6v-5.6C33.4,56.6,35.3,58.1,37.4,59.1z"/>
		<path fill="none" d="M54.4,38.5c0,2.6-0.5,5.1-1.5,7.3c-1,2.2-2.4,4-4.1,5.3c-1.7,1.2-3.6,2-5.6,2H31.8V24h11.3c2.1,0,4,0.7,5.6,2
			c1.7,1.3,3.1,3.1,4.1,5.3C53.8,33.4,54.4,35.9,54.4,38.5z"/>
		<path fill="none" d="M60,38.5v21.8H43.1c2,0,3.9-0.4,5.6-1.2c2.1-1,4-2.4,5.6-4.3c0.5-0.5,0.9-1.1,1.3-1.7
			c1.5-2.1,2.6-4.6,3.3-7.3C59.7,43.5,60,41.1,60,38.5z"/>
		<path fill="none" d="M60,16.7v21.8c0-2.6-0.3-5-1-7.3c-0.7-2.7-1.9-5.2-3.3-7.3c-0.4-0.6-0.9-1.2-1.3-1.7
			c-1.6-1.9-3.5-3.4-5.6-4.3c-1.8-0.8-3.7-1.2-5.6-1.2H60z"/>
		<line fill="none" x1="60" y1="53.1" x2="55.7" y2="53.1"/>
		<polyline fill="none" points="52.8,45.8 48.7,45.8 43.1,45.8 37.4,45.8 33.3,45.8 31.8,45.8 		"/>
		<line fill="none" x1="60" y1="45.8" x2="59" y2="45.8"/>
		<polyline fill="none" points="54.4,38.5 48.7,38.5 43.1,38.5 37.4,38.5 31.8,38.5 		"/>
		<polyline fill="none" points="31.8,31.3 33.3,31.3 37.4,31.3 43.1,31.3 48.7,31.3 52.8,31.3 		"/>
		<line fill="none" x1="60" y1="31.3" x2="59" y2="31.3"/>
		<line fill="none" x1="60" y1="24" x2="55.7" y2="24"/>
		<line fill="none" x1="54.4" y1="60.3" x2="54.4" y2="54.8"/>
		<line fill="none" x1="54.4" y1="22.3" x2="54.4" y2="16.7"/>
		<line fill="none" x1="48.7" y1="60.3" x2="48.7" y2="59.1"/>
		<polyline fill="none" points="48.7,51.1 48.7,45.8 48.7,38.5 48.7,31.3 48.7,25.9 		"/>
		<line fill="none" x1="48.7" y1="18" x2="48.7" y2="16.7"/>
		<polyline fill="none" points="43.1,24 43.1,31.3 43.1,38.5 43.1,45.8 43.1,53.1 		"/>
		<polyline fill="none" points="37.4,24 37.4,25.9 37.4,31.3 37.4,38.5 37.4,45.8 37.4,51.1 37.4,53.1 		"/>
	</g>
	<path fill="#681D5C" d="M54.4,22.3V24h-5.6v-6C50.8,18.9,52.7,20.4,54.4,22.3z"/>
	<path fill="#681D5C" d="M48.7,24v2c-1.7-1.2-3.6-2-5.6-2H48.7z"/>
	<path fill="#681D5C" d="M54.4,24v7.3h-1.5c-1-2.2-2.4-4-4.1-5.3v-2H54.4z"/>
	<path fill="#681D5C" d="M59,31.3h-4.7V24h1.3C57.2,26.1,58.3,28.6,59,31.3z"/>
	<path fill="#681D5C" d="M55.7,24h-1.3v-1.7C54.8,22.8,55.3,23.4,55.7,24z"/>
	<path fill="#681D5C" d="M60,38.5h-5.6v-7.3H59C59.7,33.5,60,36,60,38.5z"/>
	<path fill="#681D5C" d="M54.4,31.3v7.3c0-2.6-0.5-5.1-1.5-7.3H54.4z"/>
	<path fill="#681D5C" d="M60,38.5c0,2.6-0.3,5-1,7.3h-4.7v-7.3H60z"/>
	<path fill="#681D5C" d="M54.4,38.5v7.3h-1.5C53.8,43.7,54.4,41.2,54.4,38.5z"/>
	<path fill="#681D5C" d="M59,45.8c-0.7,2.7-1.9,5.2-3.3,7.3h-1.3v-7.3H59z"/>
	<path fill="#681D5C" d="M54.4,45.8v7.3h-5.6v-2c1.7-1.3,3.1-3.1,4.1-5.3H54.4z"/>
	<path fill="#681D5C" d="M54.4,53.1v1.7c-1.6,1.9-3.5,3.4-5.6,4.3v-6H54.4z"/>
	<path fill="#681D5C" d="M48.7,53.1v6c-1.8,0.8-3.7,1.2-5.6,1.2v-7.3H48.7z"/>
	<path fill="#681D5C" d="M43.1,53.1v7.3c-2,0-3.9-0.4-5.6-1.2v-6H43.1z"/>
	<path fill="#681D5C" d="M37.4,53.1v6c-2.1-1-4-2.4-5.6-4.3v-1.7H37.4z"/>
	<path fill="#681D5C" d="M48.7,51.1v2h-5.6C45.1,53.1,47.1,52.3,48.7,51.1z"/>
	<path fill="none" d="M54.4,38.5c0,2.6-0.5,5.1-1.5,7.3c-1,2.2-2.4,4-4.1,5.3c-1.7,1.2-3.6,2-5.6,2H31.8V24h11.3c2.1,0,4,0.7,5.6,2
		c1.7,1.3,3.1,3.1,4.1,5.3C53.8,33.4,54.4,35.9,54.4,38.5z"/>
	<path fill="#681D5C" d="M55.7,53.1c-0.4,0.6-0.9,1.2-1.3,1.7v-1.7H55.7z"/>
	<path fill="none" d="M54.4,38.5c0,2.6-0.5,5.1-1.5,7.3c-1,2.2-2.4,4-4.1,5.3c-1.7,1.2-3.6,2-5.6,2c-2.1,0-4-0.7-5.6-2
		c-1.7-1.3-3.1-3.1-4.1-5.3c-1-2.1-1.5-4.6-1.5-7.3c0-2.6,0.5-5.1,1.5-7.3c1-2.2,2.4-4,4.1-5.3c1.7-1.2,3.6-2,5.6-2
		c2.1,0,4,0.7,5.6,2c1.7,1.3,3.1,3.1,4.1,5.3C53.8,33.4,54.4,35.9,54.4,38.5z"/>
</g>
</svg>
